# xmcd
#
# Track frame offsets: 
#        182
#        13355
#        30055
#        43555
#        56247
#        83765
#        94820
#        108387
#        126335
#        137215
#        152767
#
# Disc length: 2262 seconds
#
# Revision: 7
# Processed by: cddbd v1.5.1PL0 Copyright (c) Steve Scherf et al.
# Submitted via: ExactAudioCopy v0.95a5
#
DISCID=8d08d40b
DTITLE=Jon Spencer Blues Explosion - Extra Width
DYEAR=1993
DGENRE=Rock
TTITLE0=Afro
TTITLE1=History of Lies
TTITLE2=Back Slider
TTITLE3=Soul Letter
TTITLE4=Soul Typecast
TTITLE5=Pant Leg
TTITLE6=Hey Mom
TTITLE7=Big Road
TTITLE8=Train #2
TTITLE9=Inside the World of the Blues Explosion
TTITLE10=The World of Sex
EXTD=
EXTT0=
EXTT1=
EXTT2=
EXTT3=
EXTT4=
EXTT5=
EXTT6=
EXTT7=
EXTT8=
EXTT9=
EXTT10=
PLAYORDER=
